<svg xmlns="http://www.w3.org/2000/svg" width="1024" height="1024" xmlns:v="https://vecta.io/nano">
  <defs>
    <clipPath id="rounded">
      <rect width="1024" height="1024" rx="200" ry="200" fill="#e7e6df"/>
    </clipPath>
  </defs>
  <rect width="1024" height="1024" rx="250" ry="250" fill="#e7e6df"/>
  <g clip-path="url(#rounded)">
    <path d="M521.234 236.838l3.307.079 3.542-.023 9.708.061 10.478.019 18.146.074 26.236.108 42.567.165 41.347.185 2.575.007 12.789.034L798 238c-.778 3.379-1.96 5.983-3.668 9.016l-1.687 3.006-1.833 3.229-1.892 3.356-14.949 25.862L764 300c-4.4 8.004-8.998 15.886-13.617 23.766L738.5 344.5l-13.437 23.375L711 392.5l-15.612 27.274-15.333 26.623-10.228 17.806-1.029 1.774-4.84 8.323-1.752 3.02-1.516 2.602c-2.358 4.292-4.501 8.698-6.691 13.078H368c.865-4.327 1.537-6.311 3.703-9.93l1.701-2.873 1.846-3.072 3.859-6.523 1.979-3.343L389.5 452.5l13.375-23.25 16.644-29.363c15.425-27.882 15.425-27.882 23.567-40.708 2.215-3.68 4.258-7.436 6.303-11.213 10.065-18.537 20.66-36.773 31.365-54.945a565.61 565.61 0 0 0 9.687-17.173c2.938-5.371 6.002-10.67 9.059-15.974l1.934-3.379 1.91-3.316 1.693-2.946L507 247l1.098-2.247c3.418-6.264 6.052-7.789 13.135-7.915zM363.15 513.544l9.068-.145 3.547-.013 9.762.034 10.521.01 18.234.041 26.364.06 42.772.092 41.554.103 2.586.004 12.845.019L647 514a68.43 68.43 0 0 1-4.941 10.176l-1.754 2.982-1.867 3.154-3.848 6.551-1.883 3.209L626.5 551l-11.187 19.438L601 595.5l-15.612 27.274-14.339 24.878-14.674 25.535-16.374 28.887-14.821 25.893-8.008 13.979-4.297 7.515-1.656 2.895-3.271 5.714-1.506 2.633-1.353 2.364a90.63 90.63 0 0 0-2.088 3.933H217c.882-4.411 1.751-6.743 3.887-10.551l1.822-3.267 1.979-3.494 2.047-3.649 14.916-25.894 13.537-23.457 14.597-25.399 10.993-19.161 18.003-31.189 14.601-25.206 12.993-22.357 11-19.187C343.981 542.307 351.034 530.672 358 519l.903-2.637C361 514 361 514 363.15 513.544z" fill="#0a0a09"/>
    <path d="M767 293l2 2c-1.963 3.534-4.041 6.245-7 9 1.225-4.053 2.699-7.444 5-11z" fill="#e7e6df"/>
  </g>
</svg>
